Coordinates
version=1
nRows=17
nColumns=40
inDegrees=yes

Units are S.I. units (second, meters, Newtons, ...)
If the header above contains a line with 'inDegrees', this indicates whether rotational values are in degrees (yes) or radians (no).

endheader
time	pelvis_tilt	pelvis_list	pelvis_rotation	pelvis_tx	pelvis_ty	pelvis_tz	hip_flexion_r	hip_adduction_r	hip_rotation_r	knee_angle_r	knee_angle_r_beta	ankle_angle_r	subtalar_angle_r	mtp_angle_r	hip_flexion_l	hip_adduction_l	hip_rotation_l	knee_angle_l	knee_angle_l_beta	ankle_angle_l	subtalar_angle_l	mtp_angle_l	lumbar_extension	lumbar_bending	lumbar_rotation	arm_flex_r	arm_add_r	arm_rot_r	elbow_flex_r	pro_sup_r	wrist_flex_r	wrist_dev_r	arm_flex_l	arm_add_l	arm_rot_l	elbow_flex_l	pro_sup_l	wrist_flex_l	wrist_dev_l
      4.15000000	     -2.03905164	     -2.51465183	      2.31050862	     -0.34847706	      0.95864499	     -0.99238314	     46.70590967	     -2.87311603	     -0.22543764	     30.47404302	      0.53187239	      8.13534005	      0.00000000	      0.00000000	     34.11314363	     -1.41367603	     -2.56993803	     56.16029694	      0.98018209	     12.23147513	      0.00000000	      0.00000000	    -10.39572206	     -0.79736560	     -7.38565642	     89.90238243	     -1.01771632	     46.48637417	     45.57434224	     83.72123732	      0.00000000	      0.00000000	     89.93704785	    -19.70297424	     48.91158478	     53.95189388	     87.10148131	      0.00000000	      0.00000000
      4.15500000	     -2.12398370	     -2.57755534	      2.41061522	     -0.34829357	      0.95989349	     -0.99250053	     46.60177501	     -2.86840538	     -0.07593698	     30.58045512	      0.53372963	      8.08862826	      0.00000000	      0.00000000	     33.94361253	     -1.50810551	     -2.70299103	     55.60618431	      0.97051100	     12.01106389	      0.00000000	      0.00000000	    -10.26759331	     -0.72297817	     -7.45472623	     89.90213833	     -1.06180689	     46.56154161	     45.53592713	     83.72716720	      0.00000000	      0.00000000	     89.93641619	    -19.66105313	     48.98538996	     53.89860282	     87.10472558	      0.00000000	      0.00000000
      4.16000000	     -2.15555651	     -2.55608232	      2.43998720	     -0.34818258	      0.96124273	     -0.99258917	     46.43041085	     -2.90362327	     -0.02637012	     30.59957811	      0.53406339	      8.08242254	      0.00000000	      0.00000000	     33.77066487	     -1.50890159	     -2.76691986	     55.17468034	      0.96297984	     11.74547052	      0.00000000	      0.00000000	    -10.22164011	     -0.75192195	     -7.49727345	     89.90246782	     -1.07553620	     46.56897413	     45.60123190	     83.72847098	      0.00000000	      0.00000000	     89.93638825	    -19.67777445	     49.04682119	     53.88194192	     87.10996356	      0.00000000	      0.00000000
      4.16500000	     -2.04582613	     -2.35960560	      2.45913755	     -0.34785766	      0.96281621	     -0.99279930	     46.08482317	     -3.07873316	      0.11753251	     30.58509205	      0.53381056	      8.14414054	      0.00000000	      0.00000000	     33.40497176	     -1.34768606	     -2.96382468	     54.74810851	      0.95553475	     11.44276253	      0.00000000	      0.00000000	    -10.31279937	     -0.95684008	     -7.53036247	     89.90268639	     -1.09212390	     46.80039162	     45.50591241	     83.74869619	      0.00000000	      0.00000000	     89.93622876	    -19.68696485	     49.12874779	     53.90784818	     87.11423757	      0.00000000	      0.00000000
      4.17000000	     -2.05929142	     -2.35204928	      2.50785051	     -0.34767494	      0.96416935	     -0.99289136	     45.88747793	     -3.10521011	      0.21010409	     30.63279848	      0.53464319	      8.01703498	      0.00000000	      0.00000000	     33.21520270	     -1.34703614	     -3.00667903	     54.34442440	      0.94848914	     11.26091836	      0.00000000	      0.00000000	    -10.26966018	     -0.97098995	     -7.57891726	     89.90245018	     -1.10876172	     46.71196944	     45.60873306	     83.74166759	      0.00000000	      0.00000000	     89.93607915	    -19.68265113	     49.16353318	     53.88732291	     87.12037152	      0.00000000	      0.00000000
      4.17500000	     -2.13202498	     -2.40380625	      2.57552327	     -0.34754755	      0.96531521	     -0.99295392	     45.74976722	     -3.08815543	      0.28133387	     30.70175407	      0.53584669	      7.99847478	      0.00000000	      0.00000000	     33.17945843	     -1.42663204	     -3.09079158	     54.12633607	      0.94468278	     11.16693558	      0.00000000	      0.00000000	    -10.17237058	     -0.93069685	     -7.63399494	     89.90182808	     -1.13966337	     46.70302696	     45.61225369	     83.74054581	      0.00000000	      0.00000000	     89.93558842	    -19.66018630	     49.17030640	     53.89736292	     87.12131773	      0.00000000	      0.00000000
      4.18000000	     -2.06473377	     -2.30905070	      2.55888261	     -0.34734210	      0.96691671	     -0.99297406	     45.44928852	     -3.16818093	      0.36368269	     30.69739103	      0.53577055	      7.94376655	      0.00000000	      0.00000000	     32.83172775	     -1.38267934	     -3.25311833	     53.59820489	      0.93546515	     10.79404322	      0.00000000	      0.00000000	    -10.21834890	     -1.02590250	     -7.61580794	     89.90189239	     -1.13430719	     46.78784396	     45.59351465	     83.74412178	      0.00000000	      0.00000000	     89.93567827	    -19.65604536	     49.29255728	     53.82218498	     87.12747048	      0.00000000	      0.00000000
      4.18500000	     -2.13107699	     -2.31934509	      2.59659810	     -0.34723276	      0.96813681	     -0.99296963	     45.29960689	     -3.15611462	      0.45530481	     30.72153937	      0.53619201	      7.99289888	      0.00000000	      0.00000000	     32.72220303	     -1.43603389	     -3.37570923	     53.24574200	      0.92931351	     10.61076068	      0.00000000	      0.00000000	    -10.11990972	     -1.03596575	     -7.63658874	     89.90123449	     -1.16862147	     46.80418666	     45.58950953	     83.74476472	      0.00000000	      0.00000000	     89.93534466	    -19.62462611	     49.28935962	     53.81593329	     87.12823894	      0.00000000	      0.00000000
      4.19000000	     -2.03632980	     -2.25206868	      2.61626534	     -0.34698678	      0.96965118	     -0.99307336	     44.95656703	     -3.22079353	      0.57351884	     30.73173307	      0.53636993	      7.89753079	      0.00000000	      0.00000000	     32.39831153	     -1.38480533	     -3.48367096	     52.81674553	      0.92182611	     10.33459419	      0.00000000	      0.00000000	    -10.19645154	     -1.10893757	     -7.65162676	     89.90143736	     -1.19900972	     46.99314270	     45.48844897	     83.75826650	      0.00000000	      0.00000000	     89.93526626	    -19.58713452	     49.35187287	     53.75994086	     87.13239330	      0.00000000	      0.00000000
      4.19500000	     -2.13752282	     -2.28093505	      2.68889681	     -0.34683282	      0.97088697	     -0.99314620	     44.83687085	     -3.23599179	      0.65238400	     30.78368056	      0.53727658	      7.92421212	      0.00000000	      0.00000000	     32.33183374	     -1.43035108	     -3.59735043	     52.48609158	      0.91605511	     10.22717880	      0.00000000	      0.00000000	    -10.05952357	     -1.08646759	     -7.72231998	     89.90082250	     -1.23127812	     46.93873157	     45.53872730	     83.75449132	      0.00000000	      0.00000000	     89.93482930	    -19.58046986	     49.37540961	     53.77025229	     87.13508944	      0.00000000	      0.00000000
      4.20000000	     -2.17053644	     -2.28802071	      2.71238748	     -0.34673643	      0.97214217	     -0.99314490	     44.65357783	     -3.23909779	      0.74045130	     30.84841507	      0.53840641	      7.95487069	      0.00000000	      0.00000000	     32.16627669	     -1.44028240	     -3.62587340	     52.05793735	      0.90858241	     10.00018897	      0.00000000	      0.00000000	    -10.01195378	     -1.08207846	     -7.74028061	     89.90036489	     -1.23506393	     46.92526932	     45.60571666	     83.75485241	      0.00000000	      0.00000000	     89.93474168	    -19.58447775	     49.42411896	     53.75117493	     87.14135777	      0.00000000	      0.00000000
      4.20500000	     -2.18667925	     -2.23548373	      2.77415792	     -0.34649956	      0.97351996	     -0.99323556	     44.41917815	     -3.31608990	      0.84338603	     30.88852747	      0.53910651	      7.95174756	      0.00000000	      0.00000000	     31.97220178	     -1.39686761	     -3.71772064	     51.66269852	      0.90168419	      9.80058715	      0.00000000	      0.00000000	     -9.95901071	     -1.14840280	     -7.79639576	     89.89959444	     -1.26473819	     47.00384603	     45.58387803	     83.75855350	      0.00000000	      0.00000000	     89.93458790	    -19.57152129	     49.47627269	     53.73718837	     87.14483521	      0.00000000	      0.00000000
      4.21000000	     -2.08035970	     -2.08489001	      2.75952998	     -0.34619740	      0.97516482	     -0.99336004	     44.04667725	     -3.43676281	      0.98599752	     30.89222929	      0.53917111	      7.98056080	      0.00000000	      0.00000000	     31.57782181	     -1.25739813	     -3.84701192	     51.16141125	      0.89293508	      9.49361790	      0.00000000	      0.00000000	    -10.06350808	     -1.30951845	     -7.80696951	     89.89939281	     -1.29167225	     47.10301188	     45.61869543	     83.76921637	      0.00000000	      0.00000000	     89.93440036	    -19.59365741	     49.58764925	     53.74337658	     87.15713003	      0.00000000	      0.00000000
      4.21500000	     -2.06023797	     -2.05797777	      2.82499710	     -0.34593416	      0.97654015	     -0.99346567	     43.76062957	     -3.53863206	      1.07462322	     31.02143435	      0.54142617	      7.74284031	      0.00000000	      0.00000000	     31.33313479	     -1.23244229	     -3.92833619	     50.73397322	      0.88547488	      9.31596016	      0.00000000	      0.00000000	    -10.06747616	     -1.32645790	     -7.86343357	     89.89921641	     -1.28932060	     47.24291232	     45.51908389	     83.77907734	      0.00000000	      0.00000000	     89.93416305	    -19.60245906	     49.59676160	     53.76918523	     87.15434213	      0.00000000	      0.00000000
      4.22000000	     -2.17984211	     -2.11839489	      2.91146179	     -0.34590087	      0.97767892	     -0.99352217	     43.67183623	     -3.49034648	      1.10384800	     31.00175408	      0.54108268	      7.77795363	      0.00000000	      0.00000000	     31.31226511	     -1.29227071	     -3.99265660	     50.41929476	      0.87998270	      9.19747600	      0.00000000	      0.00000000	     -9.91287890	     -1.27822772	     -7.95283012	     89.89859971	     -1.31250459	     47.19443003	     45.57190928	     83.77688699	      0.00000000	      0.00000000	     89.93405435	    -19.62529818	     49.65334776	     53.78004891	     87.16022216	      0.00000000	      0.00000000
      4.22500000	     -2.19426602	     -2.16110955	      2.95215784	     -0.34560457	      0.97904783	     -0.99359068	     43.40480636	     -3.49460096	      1.26504800	     31.13084142	      0.54333568	      7.57250498	      0.00000000	      0.00000000	     31.10178344	     -1.31888676	     -3.97569235	     49.97385509	      0.87220831	      8.96858644	      0.00000000	      0.00000000	     -9.86201491	     -1.23094329	     -7.97372153	     89.89767494	     -1.33960125	     47.25064469	     45.55534013	     83.77850751	      0.00000000	      0.00000000	     89.93340119	    -19.59468649	     49.74351373	     53.75785500	     87.16735197	      0.00000000	      0.00000000
      4.23000000	     -2.16136232	     -1.96744061	      2.95686228	     -0.34541285	      0.98058540	     -0.99373657	     43.08591541	     -3.68320930	      1.41163220	     31.08581124	      0.54254976	      7.25057797	      0.00000000	      0.00000000	     30.79469008	     -1.10619463	     -4.05790718	     49.45401298	      0.86313535	      8.59277313	      0.00000000	      0.00000000	     -9.89724733	     -1.43881188	     -7.99632306	     89.89763486	     -1.37064318	     47.48461391	     45.50324868	     83.79711858	      0.00000000	      0.00000000	     89.93334759	    -19.59789699	     49.84268109	     53.74781487	     87.16868687	      0.00000000	      0.00000000
